<svg width="806" height="376" viewBox="0 0 806 376" fill="none" xmlns="http://www.w3.org/2000/svg">
<g clip-path="url(#clip0_4916_492)">
<rect width="806" height="375.808" fill="#DAE3EA"/>
</g>
<path fill-rule="evenodd" clip-rule="evenodd" d="M413.667 209.123H392.333C389.4 209.123 387 206.911 387 204.207V179.623H378.52C373.773 179.623 371.427 174.313 374.787 171.216L399.267 148.648C400.263 147.728 401.616 147.21 403.027 147.21C404.437 147.21 405.79 147.728 406.787 148.648L431.267 171.216C434.627 174.313 432.227 179.623 427.48 179.623H419V204.207C419 206.911 416.6 209.123 413.667 209.123ZM435 218.957H371C368.067 218.957 365.667 221.169 365.667 223.873C365.667 226.577 368.067 228.79 371 228.79H435C437.933 228.79 440.333 226.577 440.333 223.873C440.333 221.169 437.933 218.957 435 218.957Z" fill="#6D7D8B"/>
<defs>
<clipPath id="clip0_4916_492">
<rect width="806" height="375.808" fill="white"/>
</clipPath>
</defs>
</svg>
